<?xml version="1.0" encoding="UTF-8"?>
<!DOCTYPE svg PUBLIC "-//W3C//DTD SVG 1.1//EN" "http://www.w3.org/Graphics/SVG/1.1/DTD/svg11.dtd">
<svg xmlns="http://www.w3.org/2000/svg" version="1.1" width="3000px" height="3000px" style="shape-rendering:geometricPrecision; text-rendering:geometricPrecision; image-rendering:optimizeQuality; fill-rule:evenodd; clip-rule:evenodd" xmlns:xlink="http://www.w3.org/1999/xlink">
<g><path style="opacity:0.999" fill="#53b8fe" d="M 2534.5,-0.5 C 2535.5,-0.5 2536.5,-0.5 2537.5,-0.5C 2690.86,153.861 2844.86,307.527 2999.5,460.5C 2999.5,461.5 2999.5,462.5 2999.5,463.5C 2759.34,702.826 2519.67,942.659 2280.5,1183C 2518.87,1421.71 2756.87,1660.71 2994.5,1900C 2840.37,2055.13 2685.87,2209.96 2531,2364.5C 2137.27,1971.27 1744.1,1577.6 1351.5,1183.5C 1351.83,1182.83 1352.17,1182.17 1352.5,1181.5C 1507.55,1027.45 1661.88,872.785 1815.5,717.5C 1816.24,717.631 1816.91,717.464 1817.5,717C 2056.7,477.965 2295.7,238.799 2534.5,-0.5 Z"/></g>
<g><path style="opacity:1" fill="#119efe" d="M 1435.5,337.5 C 1457.79,361.3 1480.96,384.967 1505,408.5C 1505.4,408.272 1505.57,407.938 1505.5,407.5C 1517.17,418.5 1528.5,429.833 1539.5,441.5C 1555.29,458.8 1571.96,475.967 1589.5,493C 1590.09,493.464 1590.76,493.631 1591.5,493.5C 1612.5,513.833 1633.17,534.5 1653.5,555.5C 1653.5,555.833 1653.5,556.167 1653.5,556.5C 1648.19,551.522 1642.85,546.522 1637.5,541.5C 1541.96,754.588 1446.96,967.922 1352.5,1181.5C 1352.17,1182.17 1351.83,1182.83 1351.5,1183.5C 1112.89,945.63 874.726,707.297 637,468.5C 637.32,464.978 639.153,462.311 642.5,460.5C 672.083,432.419 701.249,403.752 730,374.5C 730.464,373.906 730.631,373.239 730.5,372.5C 853.465,249.035 976.632,125.701 1100,2.5C 1211.73,114.395 1323.56,226.062 1435.5,337.5 Z"/></g>
<g><path style="opacity:0.012" fill="#3faaff" d="M 1435.5,337.5 C 1459.17,360.5 1482.5,383.833 1505.5,407.5C 1505.57,407.938 1505.4,408.272 1505,408.5C 1480.96,384.967 1457.79,361.3 1435.5,337.5 Z"/></g>
<g><path style="opacity:0.898" fill="#28a6ff" d="M 730.5,372.5 C 730.631,373.239 730.464,373.906 730,374.5C 701.249,403.752 672.083,432.419 642.5,460.5C 671.5,430.833 700.833,401.5 730.5,372.5 Z"/></g>
<g><path style="opacity:0.024" fill="#29abff" d="M 1539.5,441.5 C 1557.17,458.5 1574.5,475.833 1591.5,493.5C 1590.76,493.631 1590.09,493.464 1589.5,493C 1571.96,475.967 1555.29,458.8 1539.5,441.5 Z"/></g>
<g><path style="opacity:1" fill="#0e7fcd" d="M 1653.5,556.5 C 1697.55,601.549 1742.22,645.883 1787.5,689.5C 1797.17,698.5 1806.5,707.833 1815.5,717.5C 1661.88,872.785 1507.55,1027.45 1352.5,1181.5C 1446.96,967.922 1541.96,754.588 1637.5,541.5C 1642.85,546.522 1648.19,551.522 1653.5,556.5 Z"/></g>
<g><path style="opacity:0.906" fill="#29a4f7" d="M 1653.5,555.5 C 1698.5,599.833 1743.17,644.5 1787.5,689.5C 1742.22,645.883 1697.55,601.549 1653.5,556.5C 1653.5,556.167 1653.5,555.833 1653.5,555.5 Z"/></g>
<g><path style="opacity:0.999" fill="#53b8fe" d="M 1646.5,1814.5 C 1645.83,1814.5 1645.5,1814.83 1645.5,1815.5C 1490.7,1969.8 1336.03,2124.3 1181.5,2279C 1182.06,2279.38 1182.39,2279.88 1182.5,2280.5C 1181.76,2280.37 1181.09,2280.54 1180.5,2281C 940.965,2520.37 701.632,2759.87 462.5,2999.5C 461.833,2999.5 461.167,2999.5 460.5,2999.5C 307.167,2844.83 153.5,2690.5 -0.5,2536.5C -0.5,2535.5 -0.5,2534.5 -0.5,2533.5C 238.813,2294.19 477.813,2054.52 716.5,1814.5C 478.5,1575.5 240.5,1336.5 2.5,1097.5C 156.833,942.5 311.5,787.833 466.5,633.5C 860.548,1026.55 1253.88,1420.21 1646.5,1814.5 Z"/></g>
<g><path style="opacity:1" fill="#119efe" d="M 1646.5,1814.5 C 1708.83,1876.17 1770.83,1938.17 1832.5,2000.5C 1852.58,2022.08 1873.25,2043.25 1894.5,2064C 1895.09,2064.46 1895.76,2064.63 1896.5,2064.5C 2051.45,2219.79 2206.45,2375.12 2361.5,2530.5C 2207.35,2685.15 2053.01,2839.65 1898.5,2994C 1897.83,2994.67 1897.17,2994.67 1896.5,2994C 1717.61,2814.94 1538.61,2636.11 1359.5,2457.5C 1360.17,2457.5 1360.5,2457.17 1360.5,2456.5C 1455.69,2242.92 1550.69,2029.26 1645.5,1815.5C 1645.5,1814.83 1645.83,1814.5 1646.5,1814.5 Z"/></g>
<g><path style="opacity:1" fill="#0e7fcd" d="M 1645.5,1815.5 C 1550.69,2029.26 1455.69,2242.92 1360.5,2456.5C 1312.7,2409.2 1265.03,2361.7 1217.5,2314C 1216.91,2313.54 1216.24,2313.37 1215.5,2313.5C 1204.17,2302.83 1193.17,2291.83 1182.5,2280.5C 1182.39,2279.88 1182.06,2279.38 1181.5,2279C 1336.03,2124.3 1490.7,1969.8 1645.5,1815.5 Z"/></g>
<g><path style="opacity:0.937" fill="#2ca8ff" d="M 1832.5,2000.5 C 1854.17,2021.5 1875.5,2042.83 1896.5,2064.5C 1895.76,2064.63 1895.09,2064.46 1894.5,2064C 1873.25,2043.25 1852.58,2022.08 1832.5,2000.5 Z"/></g>
<g><path style="opacity:0.933" fill="#28a3f7" d="M 1215.5,2313.5 C 1216.24,2313.37 1216.91,2313.54 1217.5,2314C 1265.03,2361.7 1312.7,2409.2 1360.5,2456.5C 1360.5,2457.17 1360.17,2457.5 1359.5,2457.5C 1311.17,2409.83 1263.17,2361.83 1215.5,2313.5 Z"/></g>
</svg>
